<svg width="17" height="17" viewBox="0 0 17 17" fill="none" xmlns="http://www.w3.org/2000/svg">
<path d="M6.84197 13.6768C8.36146 13.6768 9.83748 13.1698 11.0362 12.2361L15.5588 16.7587C15.8966 17.085 16.435 17.0756 16.7613 16.7377C17.0796 16.4082 17.0796 15.8857 16.7613 15.5562L12.2387 11.0336C14.5556 8.05118 14.0161 3.75522 11.0336 1.43833C8.05116 -0.878564 3.75522 -0.33904 1.43833 2.64342C-0.878565 5.62589 -0.339041 9.92186 2.64343 12.2387C3.84414 13.1715 5.32149 13.6775 6.84197 13.6768ZM3.20815 3.20553C5.21507 1.19857 8.46894 1.19853 10.4759 3.20545C12.4829 5.21238 12.4829 8.46624 10.476 10.4732C8.46905 12.4802 5.21518 12.4802 3.20822 10.4733C3.20818 10.4732 3.20818 10.4732 3.20815 10.4732C1.20122 8.4809 1.1894 5.2389 3.1817 3.23198C3.1905 3.22313 3.19931 3.21433 3.20815 3.20553Z" fill="#6D7480"/>
</svg>
