<svg width="18" height="18" viewBox="0 0 18 18" fill="none" xmlns="http://www.w3.org/2000/svg">
<path d="M6.40075 3.7276C6.24489 3.72417 6.09184 3.76935 5.96288 3.85693C5.83391 3.9445 5.73543 4.07014 5.68114 4.21627C5.62684 4.3624 5.61943 4.5218 5.65992 4.67234C5.70042 4.82288 5.78681 4.957 5.90709 5.05617L10.4965 8.9878L5.90709 12.9181C5.82389 12.9792 5.75421 13.0568 5.70241 13.1462C5.65062 13.2355 5.61783 13.3346 5.60609 13.4372C5.59435 13.5398 5.60392 13.6437 5.6342 13.7424C5.66448 13.8411 5.71482 13.9325 5.78206 14.0109C5.84931 14.0893 5.932 14.1528 6.02498 14.1977C6.11795 14.2427 6.2192 14.2679 6.32238 14.2719C6.42557 14.2759 6.52846 14.2586 6.62462 14.2209C6.72078 14.1833 6.80814 14.1262 6.88122 14.0533L12.1356 9.55762C12.2181 9.4872 12.2844 9.3998 12.3298 9.3013C12.3753 9.2028 12.3988 9.09558 12.3988 8.98711C12.3988 8.87863 12.3753 8.77142 12.3298 8.67292C12.2844 8.57441 12.2181 8.48693 12.1356 8.41651L6.88122 3.91653C6.74848 3.79863 6.57823 3.7316 6.40075 3.72743V3.7276Z" fill="#B6ACAC"/>
</svg>
