<svg width="29" height="29" viewBox="0 0 29 29" fill="none" xmlns="http://www.w3.org/2000/svg">
<g clip-path="url(#clip0_2_421)">
<path d="M27.7492 19.7154C28.3435 18.9573 28.6285 18.1447 28.5921 17.3078C28.5557 16.386 28.1434 15.6644 27.8038 15.2217C28.198 14.2392 28.3496 12.6928 27.0336 11.4921C26.0693 10.6127 24.432 10.2185 22.1639 10.3277C20.5689 10.4005 19.2348 10.6976 19.1802 10.7097H19.1741C18.8709 10.7643 18.5495 10.831 18.222 10.9038C18.1977 10.5157 18.2645 9.55144 18.9801 7.38038C19.8291 4.79695 19.7806 2.81995 18.8224 1.49791C17.8157 0.109159 16.2086 0 15.7356 0C15.2808 0 14.8623 0.187997 14.5652 0.533668C13.892 1.31598 13.9709 2.75931 14.0558 3.42639C13.2553 5.57319 11.0114 10.8371 9.11327 12.2986C9.07688 12.3229 9.04656 12.3532 9.01624 12.3835C8.45831 12.9718 8.08232 13.6085 7.82762 14.1665C7.46982 13.9724 7.0635 13.8632 6.62686 13.8632H2.92758C1.53276 13.8632 0.404785 14.9973 0.404785 16.386L0.404785 26.2407C0.404785 27.6355 1.53883 28.7635 2.92758 28.7635H6.62686C7.1666 28.7635 7.66994 28.5937 8.08232 28.3026L9.50745 28.4724C9.72577 28.5027 13.607 28.9939 17.5913 28.9151C18.313 28.9697 18.9922 29 19.6229 29C20.7084 29 21.6545 28.9151 22.4428 28.7453C24.2985 28.3511 25.566 27.5627 26.2088 26.4044C26.7 25.519 26.7 24.6397 26.6212 24.0818C27.828 22.9902 28.0403 21.7834 27.9978 20.9343C27.9736 20.4431 27.8644 20.0247 27.7492 19.7154ZM2.92758 27.1261C2.43636 27.1261 2.04217 26.7258 2.04217 26.2407L2.04217 16.38C2.04217 15.8887 2.44243 15.4946 2.92758 15.4946H6.62686C7.11808 15.4946 7.51227 15.8948 7.51227 16.38L7.51227 26.2346C7.51227 26.7258 7.11202 27.12 6.62686 27.12H2.92758V27.1261ZM26.1967 19.0059C25.942 19.2727 25.8935 19.679 26.0875 19.9944C26.0875 20.0004 26.3362 20.4249 26.3665 21.0071C26.409 21.8015 26.0269 22.505 25.2264 23.1054C24.9414 23.3237 24.8261 23.6997 24.9474 24.0393C24.9474 24.0454 25.2082 24.8459 24.7837 25.6039C24.3774 26.3317 23.4738 26.8532 22.1032 27.1443C21.0056 27.3808 19.5137 27.4233 17.6823 27.2777C17.658 27.2777 17.6277 27.2777 17.5974 27.2777C13.698 27.3626 9.7561 26.8532 9.71365 26.8471H9.70758L9.09508 26.7744C9.13146 26.6046 9.14966 26.4226 9.14966 26.2407L9.14966 16.38C9.14966 16.1192 9.10721 15.8645 9.03443 15.628C9.14359 15.2217 9.44681 14.3181 10.1624 13.5479C12.8853 11.389 15.5476 4.1056 15.6628 3.79025C15.7113 3.6629 15.7235 3.52342 15.6992 3.38394C15.5961 2.70473 15.6325 1.8739 15.778 1.62526C16.0995 1.63133 16.9667 1.72229 17.4882 2.44396C18.1068 3.29904 18.0825 4.82727 17.4154 6.85278C16.3966 9.93956 16.3117 11.5648 17.1183 12.2804C17.5185 12.6382 18.0522 12.6564 18.4403 12.5169C18.8103 12.432 19.162 12.3593 19.4955 12.3047C19.5198 12.2986 19.5501 12.2926 19.5744 12.2865C21.4361 11.8802 24.7716 11.6315 25.9299 12.6867C26.9123 13.5843 26.2149 14.7729 26.1361 14.9003C25.9117 15.2399 25.9784 15.6826 26.2816 15.9555C26.2877 15.9615 26.9244 16.5619 26.9547 17.3685C26.979 17.9082 26.7243 18.4601 26.1967 19.0059Z" fill="#7C7777"/>
</g>
<defs>
<clipPath id="clip0_2_421">
<rect width="29" height="29" fill="white"/>
</clipPath>
</defs>
</svg>
