<svg width="15" height="14" viewBox="0 0 15 14" fill="none" xmlns="http://www.w3.org/2000/svg">
<g clip-path="url(#clip0_2_107)">
<path d="M3.40533 13.9999V4.55413H0.18995V13.9999H3.40533ZM1.79806 3.2637C2.91932 3.2637 3.61725 2.53837 3.61725 1.63195C3.59636 0.705099 2.91936 -9.53674e-05 1.81933 -9.53674e-05C0.719481 -9.53674e-05 0.000244141 0.705113 0.000244141 1.63195C0.000244141 2.53841 0.698002 3.2637 1.77707 3.2637H1.79796H1.79806ZM5.18503 13.9999H8.40041V8.72493C8.40041 8.44262 8.4213 8.1606 8.50621 7.95879C8.73866 7.39475 9.26772 6.81055 10.1559 6.81055C11.3195 6.81055 11.7849 7.67676 11.7849 8.94656V13.9998H15.0001V8.58372C15.0001 5.68235 13.4138 4.33237 11.2983 4.33237C9.56371 4.33237 8.80212 5.27908 8.37902 5.92388H8.40049V4.55394H5.1851C5.2273 5.44028 5.1851 13.9997 5.1851 13.9997L5.18503 13.9999Z" fill="white"/>
</g>
<defs>
<clipPath id="clip0_2_107">
<rect width="15" height="14" fill="white"/>
</clipPath>
</defs>
</svg>
