<svg width="29" height="29" viewBox="0 0 29 29" fill="none" xmlns="http://www.w3.org/2000/svg">
<g clip-path="url(#clip0_2_409)">
<path d="M1.25082 9.28461C0.656505 10.0427 0.371479 10.8553 0.407865 11.6922C0.444252 12.614 0.85663 13.3356 1.19624 13.7783C0.802051 14.7608 0.650441 16.3072 1.96642 17.5079C2.93066 18.3873 4.56805 18.7815 6.83613 18.6723C8.43107 18.5995 9.76524 18.3024 9.81982 18.2903L9.82588 18.2903C10.1291 18.2357 10.4505 18.169 10.778 18.0962C10.8023 18.4843 10.7355 19.4486 10.0199 21.6196C9.17093 24.2031 9.21944 26.18 10.1776 27.5021C11.1843 28.8908 12.7914 29 13.2644 29C13.7192 29 14.1377 28.812 14.4348 28.4663C15.108 27.684 15.0291 26.2407 14.9442 25.5736C15.7447 23.4268 17.9886 18.1629 19.8867 16.7014C19.9231 16.6771 19.9534 16.6468 19.9838 16.6165C20.5417 16.0282 20.9177 15.3915 21.1724 14.8335C21.5302 15.0276 21.9365 15.1368 22.3731 15.1368L26.0724 15.1368C27.4672 15.1368 28.5952 14.0027 28.5952 12.614L28.5952 2.75931C28.5952 1.36449 27.4612 0.236513 26.0724 0.236513L22.3731 0.236513C21.8334 0.236513 21.3301 0.406316 20.9177 0.697406L19.4925 0.527604C19.2742 0.497281 15.393 0.00606612 11.4087 0.0849022C10.687 0.0303234 10.0078 -1.62496e-06 9.37712 -1.6801e-06C8.29159 -1.775e-06 7.34554 0.0849019 6.55717 0.254705C4.70146 0.648891 3.434 1.43727 2.79118 2.59557C2.29996 3.48097 2.29996 4.36031 2.3788 4.91823C1.17198 6.00983 0.959726 7.21664 1.00218 8.06566C1.02644 8.55688 1.13559 8.97532 1.25082 9.28461ZM26.0724 1.8739C26.5636 1.8739 26.9578 2.27415 26.9578 2.75931L26.9578 12.62C26.9578 13.1113 26.5576 13.5054 26.0724 13.5054L22.3731 13.5054C21.8819 13.5054 21.4877 13.1052 21.4877 12.62L21.4877 2.76537C21.4877 2.27415 21.888 1.87997 22.3731 1.87997L26.0724 1.87997L26.0724 1.8739ZM2.8033 9.99414C3.05801 9.72731 3.10653 9.32099 2.91246 9.00564C2.91246 8.99958 2.66382 8.57507 2.6335 7.99289C2.59105 7.19845 2.97311 6.49498 3.77361 5.8946C4.05864 5.67628 4.17386 5.30029 4.05257 4.96069C4.05257 4.95462 3.7918 4.15412 4.21631 3.39607C4.62263 2.66834 5.52622 2.1468 6.89678 1.85571C7.99443 1.6192 9.48628 1.57675 11.3177 1.72229C11.342 1.72229 11.3723 1.72229 11.4026 1.72229C15.302 1.63739 19.2439 2.1468 19.2864 2.15287L19.2924 2.15287L19.9049 2.22564C19.8685 2.39544 19.8503 2.57737 19.8503 2.75931L19.8503 12.62C19.8503 12.8808 19.8928 13.1355 19.9656 13.372C19.8564 13.7783 19.5532 14.6819 18.8376 15.4521C16.1147 17.611 13.4524 24.8944 13.3372 25.2097C13.2887 25.3371 13.2765 25.4766 13.3008 25.6161C13.4039 26.2953 13.3675 27.1261 13.222 27.3747C12.9005 27.3687 12.0333 27.2777 11.5118 26.556C10.8932 25.701 10.9175 24.1727 11.5846 22.1472C12.6034 19.0604 12.6883 17.4352 11.8817 16.7196C11.4815 16.3618 10.9478 16.3436 10.5597 16.4831C10.1897 16.568 9.83801 16.6407 9.50447 16.6953C9.48021 16.7014 9.44989 16.7074 9.42563 16.7135C7.56386 17.1198 4.22844 17.3685 3.07014 16.3133C2.0877 15.4157 2.78511 14.2271 2.86395 14.0997C3.08833 13.7601 3.02162 13.3174 2.7184 13.0445C2.71234 13.0385 2.07558 12.4381 2.04525 11.6315C2.021 11.0918 2.2757 10.5399 2.8033 9.99414Z" fill="#7C7777"/>
</g>
<defs>
<clipPath id="clip0_2_409">
<rect width="29" height="29" fill="white" transform="translate(29 29) rotate(-180)"/>
</clipPath>
</defs>
</svg>
