<svg width="7" height="11" viewBox="0 0 7 11" fill="none" xmlns="http://www.w3.org/2000/svg">
<path d="M0.799519 0.000181578C0.643666 -0.0032463 0.490617 0.0419333 0.36165 0.129509C0.232684 0.217084 0.134207 0.342727 0.0799122 0.488857C0.0256175 0.634987 0.0182022 0.79438 0.0586971 0.944919C0.0991921 1.09546 0.185585 1.22958 0.305865 1.32875L4.89523 5.26038L0.305865 9.19063C0.222661 9.25179 0.15298 9.32942 0.101185 9.41875C0.0493907 9.50808 0.0165982 9.60717 0.00486123 9.70976C-0.00687576 9.81235 0.00269587 9.91623 0.0329766 10.015C0.0632573 10.1137 0.113595 10.2051 0.180836 10.2835C0.248078 10.3618 0.330777 10.4254 0.423751 10.4703C0.516726 10.5152 0.617976 10.5405 0.721158 10.5445C0.82434 10.5484 0.927233 10.5311 1.02339 10.4935C1.11955 10.4559 1.20691 10.3988 1.27999 10.3259L6.53439 5.8302C6.61691 5.75979 6.68317 5.67239 6.7286 5.57388C6.77404 5.47538 6.79756 5.36817 6.79756 5.25969C6.79756 5.15122 6.77404 5.044 6.7286 4.9455C6.68317 4.847 6.61691 4.75951 6.53439 4.68909L1.27999 0.189112C1.14725 0.0712135 0.977004 0.00418552 0.799519 8.56521e-06V0.000181578Z" fill="#888888"/>
</svg>
