<svg width="48" height="48" viewBox="0 0 48 48" fill="none" xmlns="http://www.w3.org/2000/svg">
<rect width="47.0769" height="47.0769" rx="2.76923" fill="#414349"/>
<path d="M11.2589 20.2524L18.2518 13.2596C18.4249 13.0865 18.6296 13 18.8664 13C19.1031 13 19.3081 13.0865 19.481 13.2596C19.654 13.4327 19.7406 13.6376 19.7406 13.8743V17.3707H22.8C29.2923 17.3707 33.2757 19.2055 34.751 22.8749C35.2334 24.0948 35.4746 25.6111 35.4746 27.423C35.4746 28.9344 34.8964 30.9876 33.7401 33.5827C33.7128 33.6465 33.6651 33.7556 33.5967 33.9103C33.5284 34.065 33.467 34.2016 33.4124 34.3201C33.3575 34.4383 33.2983 34.5384 33.2347 34.6203C33.1255 34.7751 32.998 34.8527 32.8522 34.8527C32.7157 34.8527 32.6086 34.8072 32.5312 34.7162C32.4539 34.6252 32.4152 34.5113 32.4152 34.375C32.4152 34.2928 32.4266 34.1724 32.4494 34.0129C32.4722 33.8535 32.4836 33.7468 32.4836 33.692C32.5292 33.0731 32.552 32.5127 32.552 32.0123C32.552 31.0927 32.4722 30.2686 32.313 29.5403C32.1536 28.8117 31.9328 28.1813 31.6505 27.6486C31.3682 27.1157 31.0041 26.6562 30.5578 26.2692C30.1117 25.8822 29.6315 25.5659 29.117 25.32C28.6025 25.0741 27.997 24.8806 27.3004 24.7395C26.6039 24.5984 25.9028 24.5005 25.1971 24.4458C24.4913 24.3911 23.6924 24.3639 22.8 24.3639H19.7406V27.8604C19.7406 28.0971 19.6542 28.3021 19.4813 28.475C19.3081 28.6478 19.1033 28.7345 18.8667 28.7345C18.63 28.7345 18.4251 28.6478 18.2518 28.475L11.259 21.482C11.086 21.3089 10.9995 21.1041 10.9995 20.8674C10.9996 20.6307 11.086 20.4257 11.2589 20.2524Z" fill="#2A2B30"/>
</svg>
