<svg width="215" height="48" viewBox="0 0 215 48" fill="none" xmlns="http://www.w3.org/2000/svg">
<path d="M54.8828 26.8203L57.1484 17.625H58.375L58.4531 19.5625L56.0312 29H54.7344L54.8828 26.8203ZM53.4531 17.625L55.3125 26.7891V29H53.8984L51.3203 17.625H53.4531ZM60.8047 26.75L62.6328 17.625H64.7734L62.1953 29H60.7812L60.8047 26.75ZM58.9609 17.625L61.2266 26.8516L61.3594 29H60.0625L57.6484 19.5547L57.7422 17.625H58.9609ZM73.6797 22.3203V24.0078H67.6953V22.3203H73.6797ZM68.2812 17.625V29H66.1328V17.625H68.2812ZM75.2734 17.625V29H73.125V17.625H75.2734ZM82.125 19.3516L78.8828 29H76.6094L80.8594 17.625H82.3125L82.125 19.3516ZM84.8359 29L81.5781 19.3516L81.3828 17.625H82.8438L87.1172 29H84.8359ZM84.6875 24.7734V26.4688H78.5859V24.7734H84.6875ZM92.1875 17.625V29H90.0469V17.625H92.1875ZM95.7188 17.625V19.3203H86.5547V17.625H95.7188ZM97.1484 17.625H101.281C102.146 17.625 102.888 17.7552 103.508 18.0156C104.128 18.276 104.604 18.6615 104.938 19.1719C105.271 19.6823 105.438 20.3099 105.438 21.0547C105.438 21.6432 105.333 22.1536 105.125 22.5859C104.917 23.0182 104.622 23.3802 104.242 23.6719C103.867 23.9635 103.424 24.1927 102.914 24.3594L102.242 24.7031H98.5938L98.5781 23.0078H101.305C101.747 23.0078 102.115 22.9297 102.406 22.7734C102.698 22.6172 102.917 22.401 103.062 22.125C103.214 21.849 103.289 21.5339 103.289 21.1797C103.289 20.7995 103.216 20.4714 103.07 20.1953C102.924 19.9141 102.703 19.6979 102.406 19.5469C102.109 19.3958 101.734 19.3203 101.281 19.3203H99.2969V29H97.1484V17.625ZM103.57 29L100.938 23.9062L103.211 23.8984L105.875 28.8906V29H103.57ZM114.859 27.3125V29H108.812V27.3125H114.859ZM109.469 17.625V29H107.32V17.625H109.469ZM114.07 22.3203V23.9688H108.812V22.3203H114.07ZM114.836 17.625V19.3203H108.812V17.625H114.836ZM122.453 27.3984L125.484 29.8047L124.109 31L121.125 28.6094L122.453 27.3984ZM125.539 23.0234V23.6094C125.539 24.4688 125.424 25.2422 125.195 25.9297C124.966 26.612 124.638 27.1927 124.211 27.6719C123.789 28.151 123.286 28.5182 122.703 28.7734C122.12 29.0286 121.474 29.1562 120.766 29.1562C120.062 29.1562 119.417 29.0286 118.828 28.7734C118.245 28.5182 117.74 28.151 117.312 27.6719C116.885 27.1927 116.555 26.612 116.32 25.9297C116.086 25.2422 115.969 24.4688 115.969 23.6094V23.0234C115.969 22.1589 116.083 21.3854 116.312 20.7031C116.547 20.0208 116.875 19.4401 117.297 18.9609C117.724 18.4766 118.229 18.1068 118.812 17.8516C119.401 17.5964 120.047 17.4688 120.75 17.4688C121.458 17.4688 122.104 17.5964 122.688 17.8516C123.276 18.1068 123.781 18.4766 124.203 18.9609C124.63 19.4401 124.958 20.0208 125.188 20.7031C125.422 21.3854 125.539 22.1589 125.539 23.0234ZM123.367 23.6094V23.0078C123.367 22.388 123.31 21.8438 123.195 21.375C123.081 20.901 122.909 20.5026 122.68 20.1797C122.456 19.8568 122.182 19.6146 121.859 19.4531C121.536 19.2865 121.167 19.2031 120.75 19.2031C120.339 19.2031 119.971 19.2865 119.648 19.4531C119.326 19.6146 119.052 19.8568 118.828 20.1797C118.604 20.5026 118.432 20.901 118.312 21.375C118.198 21.8438 118.141 22.388 118.141 23.0078V23.6094C118.141 24.224 118.198 24.7682 118.312 25.2422C118.432 25.7161 118.604 26.1172 118.828 26.4453C119.057 26.7682 119.333 27.013 119.656 27.1797C119.984 27.3464 120.354 27.4297 120.766 27.4297C121.182 27.4297 121.552 27.3464 121.875 27.1797C122.198 27.013 122.469 26.7682 122.688 26.4453C122.911 26.1172 123.081 25.7161 123.195 25.2422C123.31 24.7682 123.367 24.224 123.367 23.6094ZM133.711 17.625H135.859V25.1797C135.859 26.0495 135.672 26.7812 135.297 27.375C134.922 27.9635 134.411 28.4089 133.766 28.7109C133.12 29.0078 132.385 29.1562 131.562 29.1562C130.729 29.1562 129.987 29.0078 129.336 28.7109C128.685 28.4089 128.174 27.9635 127.805 27.375C127.435 26.7812 127.25 26.0495 127.25 25.1797V17.625H129.398V25.1797C129.398 25.7109 129.487 26.1458 129.664 26.4844C129.841 26.8177 130.091 27.0651 130.414 27.2266C130.737 27.388 131.12 27.4688 131.562 27.4688C132.01 27.4688 132.393 27.388 132.711 27.2266C133.034 27.0651 133.281 26.8177 133.453 26.4844C133.625 26.1458 133.711 25.7109 133.711 25.1797V17.625ZM140.188 17.625V29H138.039V17.625H140.188ZM142.508 17.625H146.641C147.505 17.625 148.247 17.7552 148.867 18.0156C149.487 18.276 149.964 18.6615 150.297 19.1719C150.63 19.6823 150.797 20.3099 150.797 21.0547C150.797 21.6432 150.693 22.1536 150.484 22.5859C150.276 23.0182 149.982 23.3802 149.602 23.6719C149.227 23.9635 148.784 24.1927 148.273 24.3594L147.602 24.7031H143.953L143.938 23.0078H146.664C147.107 23.0078 147.474 22.9297 147.766 22.7734C148.057 22.6172 148.276 22.401 148.422 22.125C148.573 21.849 148.648 21.5339 148.648 21.1797C148.648 20.7995 148.576 20.4714 148.43 20.1953C148.284 19.9141 148.062 19.6979 147.766 19.5469C147.469 19.3958 147.094 19.3203 146.641 19.3203H144.656V29H142.508V17.625ZM148.93 29L146.297 23.9062L148.57 23.8984L151.234 28.8906V29H148.93ZM160.219 27.3125V29H154.172V27.3125H160.219ZM154.828 17.625V29H152.68V17.625H154.828ZM159.43 22.3203V23.9688H154.172V22.3203H159.43ZM160.195 17.625V19.3203H154.172V17.625H160.195ZM162.648 17.625H164.508L167.617 26.1875L170.719 17.625H172.586L168.359 29H166.867L162.648 17.625ZM161.711 17.625H163.531L163.859 25.4922V29H161.711V17.625ZM171.695 17.625H173.523V29H171.375V25.4922L171.695 17.625ZM183.25 27.3125V29H177.203V27.3125H183.25ZM177.859 17.625V29H175.711V17.625H177.859ZM182.461 22.3203V23.9688H177.203V22.3203H182.461ZM183.227 17.625V19.3203H177.203V17.625H183.227ZM193.883 17.625V29H191.727L186.891 21.1094V29H184.742V17.625H186.891L191.742 25.5234V17.625H193.883ZM200.719 17.625V29H198.578V17.625H200.719ZM204.25 17.625V19.3203H195.086V17.625H204.25ZM211.508 26.0469C211.508 25.8281 211.474 25.6328 211.406 25.4609C211.344 25.2839 211.227 25.125 211.055 24.9844C210.888 24.8385 210.651 24.6979 210.344 24.5625C210.042 24.4219 209.651 24.276 209.172 24.125C208.641 23.9583 208.146 23.7708 207.688 23.5625C207.229 23.3542 206.826 23.112 206.477 22.8359C206.133 22.5599 205.865 22.2422 205.672 21.8828C205.479 21.5182 205.383 21.0964 205.383 20.6172C205.383 20.1484 205.482 19.7214 205.68 19.3359C205.883 18.9505 206.169 18.6198 206.539 18.3438C206.909 18.0625 207.344 17.8464 207.844 17.6953C208.349 17.5443 208.906 17.4688 209.516 17.4688C210.359 17.4688 211.089 17.6224 211.703 17.9297C212.323 18.237 212.802 18.6536 213.141 19.1797C213.479 19.7057 213.648 20.2969 213.648 20.9531H211.508C211.508 20.599 211.432 20.2865 211.281 20.0156C211.135 19.7448 210.911 19.5312 210.609 19.375C210.312 19.2188 209.938 19.1406 209.484 19.1406C209.047 19.1406 208.682 19.2057 208.391 19.3359C208.104 19.4661 207.888 19.6432 207.742 19.8672C207.602 20.0911 207.531 20.3411 207.531 20.6172C207.531 20.8255 207.581 21.013 207.68 21.1797C207.779 21.3411 207.927 21.4948 208.125 21.6406C208.323 21.7812 208.568 21.9141 208.859 22.0391C209.156 22.1589 209.5 22.2786 209.891 22.3984C210.516 22.5859 211.062 22.7943 211.531 23.0234C212.005 23.2526 212.398 23.513 212.711 23.8047C213.029 24.0964 213.266 24.4245 213.422 24.7891C213.583 25.1536 213.664 25.5677 213.664 26.0312C213.664 26.5208 213.568 26.9583 213.375 27.3438C213.182 27.7292 212.906 28.0573 212.547 28.3281C212.188 28.599 211.755 28.8047 211.25 28.9453C210.75 29.0859 210.19 29.1562 209.57 29.1562C209.018 29.1562 208.471 29.0833 207.93 28.9375C207.393 28.7865 206.906 28.5625 206.469 28.2656C206.031 27.9635 205.682 27.5833 205.422 27.125C205.161 26.6615 205.031 26.1198 205.031 25.5H207.188C207.188 25.8594 207.245 26.1667 207.359 26.4219C207.479 26.6719 207.646 26.8776 207.859 27.0391C208.078 27.1953 208.333 27.3099 208.625 27.3828C208.917 27.4557 209.232 27.4922 209.57 27.4922C210.008 27.4922 210.367 27.4323 210.648 27.3125C210.935 27.1875 211.148 27.0156 211.289 26.7969C211.435 26.5781 211.508 26.3281 211.508 26.0469Z" fill="white"/>
<path fill-rule="evenodd" clip-rule="evenodd" d="M18 6C27.9408 6 36 14.0619 36 24.0025C36 33.943 27.9408 42 18 42C8.05922 42 0 33.9431 0 24.0025C0 14.0619 8.05922 6 18 6ZM22.6687 24.2739C22.6687 24.4334 22.7321 24.5863 22.8449 24.6991C22.9577 24.8119 23.1106 24.8753 23.2701 24.8753C23.4296 24.8753 23.5826 24.8119 23.6954 24.6991C23.8082 24.5863 23.8715 24.4334 23.8715 24.2739V24.2703C23.871 24.1108 23.8072 23.958 23.6941 23.8456C23.581 23.7331 23.4278 23.6702 23.2683 23.6707C23.1088 23.6712 22.9561 23.735 22.8436 23.8481C22.7312 23.9612 22.6683 24.1144 22.6687 24.2739ZM22.6687 20.4178C22.6687 20.5773 22.7321 20.7302 22.8449 20.843C22.9577 20.9558 23.1106 21.0192 23.2701 21.0192C23.4296 21.0192 23.5826 20.9558 23.6954 20.843C23.8082 20.7302 23.8715 20.5773 23.8715 20.4178V20.4142C23.871 20.2547 23.8072 20.1019 23.6941 19.9895C23.581 19.877 23.4278 19.8141 23.2683 19.8146C23.1088 19.8151 22.9561 19.8789 22.8436 19.992C22.7312 20.1051 22.6683 20.2583 22.6687 20.4178ZM24.5964 22.344C24.5963 22.4631 24.6315 22.5796 24.6975 22.6788C24.7636 22.7779 24.8575 22.8552 24.9675 22.9009C25.0775 22.9467 25.1986 22.9587 25.3155 22.9356C25.4324 22.9125 25.5398 22.8553 25.6241 22.7712C25.7084 22.687 25.7659 22.5798 25.7893 22.463C25.8127 22.3462 25.8009 22.2251 25.7555 22.1149C25.71 22.0048 25.6329 21.9107 25.5339 21.8444C25.435 21.7781 25.3186 21.7426 25.1994 21.7425H25.1959C25.1169 21.7424 25.0388 21.758 24.9659 21.7882C24.8931 21.8185 24.8269 21.8628 24.7712 21.9187C24.7155 21.9746 24.6714 22.0409 24.6414 22.1139C24.6114 22.1869 24.5961 22.2651 24.5964 22.344ZM20.7414 22.344C20.7413 22.4631 20.7765 22.5795 20.8425 22.6786C20.9086 22.7776 21.0025 22.8549 21.1125 22.9006C21.2224 22.9462 21.3435 22.9583 21.4603 22.9352C21.5771 22.9121 21.6844 22.8549 21.7687 22.7708C21.853 22.6867 21.9105 22.5795 21.9339 22.4628C21.9572 22.346 21.9455 22.225 21.9001 22.1149C21.8547 22.0048 21.7776 21.9107 21.6787 21.8444C21.5798 21.7781 21.4635 21.7426 21.3444 21.7425H21.3408C21.2619 21.7424 21.1838 21.758 21.1109 21.7883C21.0381 21.8185 20.9719 21.8628 20.9162 21.9187C20.8605 21.9746 20.8164 22.041 20.7864 22.1139C20.7564 22.1869 20.7411 22.2651 20.7414 22.344ZM10.1983 22.344C10.1982 22.423 10.2137 22.5013 10.2439 22.5743C10.2741 22.6473 10.3184 22.7137 10.3743 22.7695C10.4302 22.8254 10.4965 22.8697 10.5696 22.8999C10.6426 22.9301 10.7208 22.9456 10.7999 22.9455H12.1378V24.2846C12.1357 24.3648 12.1497 24.4447 12.1789 24.5195C12.2082 24.5943 12.2521 24.6625 12.3082 24.7201C12.3642 24.7776 12.4312 24.8233 12.5052 24.8546C12.5792 24.8858 12.6587 24.9019 12.739 24.9019C12.8193 24.9019 12.8988 24.8858 12.9728 24.8546C13.0468 24.8233 13.1138 24.7776 13.1698 24.7201C13.2259 24.6625 13.2698 24.5943 13.2991 24.5195C13.3283 24.4447 13.3423 24.3648 13.3402 24.2846V22.9455H14.6778C14.7568 22.9455 14.835 22.93 14.908 22.8997C14.981 22.8695 15.0473 22.8252 15.1031 22.7693C15.159 22.7135 15.2033 22.6472 15.2335 22.5742C15.2638 22.5012 15.2793 22.423 15.2793 22.344C15.2793 22.265 15.2638 22.1868 15.2335 22.1138C15.2033 22.0408 15.159 21.9745 15.1031 21.9187C15.0473 21.8628 14.981 21.8185 14.908 21.7883C14.835 21.758 14.7568 21.7425 14.6778 21.7425H13.3409V20.4034C13.343 20.3231 13.329 20.2432 13.2998 20.1684C13.2705 20.0936 13.2266 20.0255 13.1705 19.9679C13.1145 19.9104 13.0475 19.8647 12.9735 19.8334C12.8995 19.8022 12.82 19.7861 12.7397 19.7861C12.6594 19.7861 12.5799 19.8022 12.5059 19.8334C12.4319 19.8647 12.3649 19.9104 12.3089 19.9679C12.2528 20.0255 12.2089 20.0936 12.1796 20.1684C12.1504 20.2432 12.1364 20.3231 12.1385 20.4034V21.7425H10.8C10.721 21.7424 10.6427 21.7579 10.5697 21.7881C10.4967 21.8183 10.4303 21.8626 10.3745 21.9184C10.3186 21.9743 10.2743 22.0407 10.2441 22.1137C10.2139 22.1867 10.1984 22.265 10.1985 22.344H10.1983ZM9.60694 19.3968L9.60391 19.4017L9.60124 19.4067C8.65603 21.1762 7.81741 23.0489 7.25435 24.9776C6.80435 26.5193 6.51663 28.153 6.5835 29.7637L6.58392 29.7727L6.58505 29.7815C6.67118 30.4354 6.8208 31.2498 7.13412 31.8391C7.25084 32.0585 7.43984 32.33 7.68255 32.4237C7.94918 32.5264 8.27423 32.4229 8.52068 32.3092C8.89042 32.1259 9.23491 31.8956 9.54556 31.6239L9.56137 31.6107L9.57417 31.5944C10.4051 30.539 11.2234 29.4507 11.9578 28.3254C12.1724 27.9951 12.487 27.7421 12.8555 27.6032C13.2241 27.4643 13.6274 27.4468 14.0066 27.5533C15.3063 27.9128 16.6486 28.0947 17.9971 28.094H18C19.3491 28.0951 20.6922 27.9132 21.9924 27.5533C22.3717 27.4468 22.7751 27.4643 23.1437 27.6032C23.5124 27.7422 23.8269 27.9953 24.0415 28.3257C24.7756 29.4507 25.5949 30.5392 26.4251 31.5947L26.4379 31.6109L26.4537 31.6243C26.7644 31.896 27.1089 32.1263 27.4787 32.3095C27.7248 32.423 28.05 32.5268 28.3165 32.424C28.5595 32.3302 28.7484 32.059 28.8649 31.8394C29.1784 31.2502 29.328 30.4358 29.4141 29.7819L29.4153 29.773V29.7641C29.4822 28.1534 29.1947 26.5197 28.7446 24.9779C28.1815 23.0494 27.3428 21.1766 26.3976 19.4071L26.3949 19.402L26.3919 19.3972C25.4562 17.8627 23.9963 17.3571 22.2477 17.4755C22.0586 17.486 21.8755 17.5456 21.7166 17.6484C20.6019 18.3402 19.3131 18.6999 18.0013 18.6853H17.9965C16.6847 18.7014 15.3956 18.3417 14.2818 17.6485C14.1228 17.5456 13.9398 17.486 13.7507 17.4755C12.0023 17.357 10.542 17.863 9.60645 19.3972L9.60694 19.3968ZM11.468 15.5342C11.3884 15.5346 11.3121 15.5664 11.2558 15.6227C11.1995 15.679 11.1677 15.7552 11.1672 15.8349V16.5921L11.4259 16.5137C12.1428 16.3069 12.8894 16.2226 13.6344 16.2643L13.8435 16.2733V15.8349C13.843 15.7553 13.8112 15.679 13.7549 15.6228C13.6986 15.5665 13.6224 15.5346 13.5428 15.5342H11.468ZM22.4578 15.5342C22.3782 15.5346 22.302 15.5664 22.2457 15.6227C22.1894 15.679 22.1575 15.7552 22.1571 15.8349V16.2733L22.3661 16.2643C23.1111 16.2226 23.8578 16.3069 24.5747 16.5137L24.8333 16.592V15.8349C24.8329 15.7552 24.801 15.679 24.7447 15.6227C24.6884 15.5664 24.6122 15.5346 24.5326 15.5342H22.4578Z" fill="#2180FF"/>
</svg>
