<svg width="13" height="13" viewBox="0 0 13 13" fill="none" xmlns="http://www.w3.org/2000/svg">
<g clip-path="url(#clip0_2_406)">
<path d="M12.48 0.514582C12.2033 0.213892 11.8199 0.033585 11.4118 0.0123209C11.0037 -0.00894312 10.6036 0.130529 10.2971 0.400832L5.5196 5.18374C5.43384 5.27032 5.37868 5.38253 5.36252 5.50333L5.15127 7.24749C5.11335 7.55949 5.41181 7.93432 5.75252 7.84874L7.49669 7.63749C7.61748 7.62133 7.7297 7.56617 7.81628 7.48041L12.5938 2.6975C12.8677 2.39272 13.0096 1.99174 12.9882 1.58252C12.9669 1.1733 12.7841 0.789239 12.48 0.514582Z" fill="#F8611A"/>
<path d="M7.63208 8.70999L5.88249 8.92666C5.63823 8.95192 5.3914 8.9223 5.16004 8.83996C4.92869 8.75761 4.71865 8.62464 4.54526 8.45073C4.37188 8.27683 4.23952 8.06639 4.15788 7.83479C4.07623 7.60319 4.04734 7.35627 4.07333 7.11208L4.29 5.36791C4.33228 5.00909 4.49452 4.67507 4.75041 4.42L7.53999 1.625H1.625C1.19442 1.62629 0.78184 1.7979 0.477372 2.10237C0.172904 2.40684 0.00128596 2.81942 0 3.25L0 11.375C0.00128596 11.8056 0.172904 12.2182 0.477372 12.5226C0.78184 12.8271 1.19442 12.9987 1.625 13H9.20833C9.63891 12.9987 10.0515 12.8271 10.356 12.5226C10.6604 12.2182 10.832 11.8056 10.8333 11.375V5.99625L8.57999 8.24958C8.3249 8.50544 7.99089 8.66767 7.63208 8.70999Z" fill="#F8611A"/>
</g>
<defs>
<clipPath id="clip0_2_406">
<rect width="13" height="13" fill="white"/>
</clipPath>
</defs>
</svg>
