<svg width="14" height="14" viewBox="0 0 14 14" fill="none" xmlns="http://www.w3.org/2000/svg">
<path d="M1.75001 3.50008H8.16667C8.16667 3.8095 8.28959 4.10625 8.50838 4.32504C8.72718 4.54383 9.02392 4.66675 9.33334 4.66675H10.5C10.8094 4.66675 11.1062 4.54383 11.325 4.32504C11.5438 4.10625 11.6667 3.8095 11.6667 3.50008H12.25C12.4047 3.50008 12.5531 3.43862 12.6625 3.32923C12.7719 3.21983 12.8333 3.07146 12.8333 2.91675C12.8333 2.76204 12.7719 2.61367 12.6625 2.50427C12.5531 2.39487 12.4047 2.33342 12.25 2.33342H11.6667C11.6667 2.024 11.5438 1.72725 11.325 1.50846C11.1062 1.28966 10.8094 1.16675 10.5 1.16675H9.33334C9.02392 1.16675 8.72718 1.28966 8.50838 1.50846C8.28959 1.72725 8.16667 2.024 8.16667 2.33342H1.75001C1.5953 2.33342 1.44692 2.39487 1.33753 2.50427C1.22813 2.61367 1.16667 2.76204 1.16667 2.91675C1.16667 3.07146 1.22813 3.21983 1.33753 3.32923C1.44692 3.43862 1.5953 3.50008 1.75001 3.50008ZM9.33334 2.33342H10.5V2.91675V3.50008H9.33334V2.33342ZM12.25 6.41675H7.00001C7.00001 6.10733 6.87709 5.81058 6.6583 5.59179C6.43951 5.373 6.14276 5.25008 5.83334 5.25008H4.66667C4.35725 5.25008 4.06051 5.373 3.84171 5.59179C3.62292 5.81058 3.50001 6.10733 3.50001 6.41675H1.75001C1.5953 6.41675 1.44692 6.47821 1.33753 6.5876C1.22813 6.697 1.16667 6.84537 1.16667 7.00008C1.16667 7.15479 1.22813 7.30317 1.33753 7.41256C1.44692 7.52196 1.5953 7.58342 1.75001 7.58342H3.50001C3.50001 7.89284 3.62292 8.18958 3.84171 8.40837C4.06051 8.62717 4.35725 8.75008 4.66667 8.75008H5.83334C6.14276 8.75008 6.43951 8.62717 6.6583 8.40837C6.87709 8.18958 7.00001 7.89284 7.00001 7.58342H12.25C12.4047 7.58342 12.5531 7.52196 12.6625 7.41256C12.7719 7.30317 12.8333 7.15479 12.8333 7.00008C12.8333 6.84537 12.7719 6.697 12.6625 6.5876C12.5531 6.47821 12.4047 6.41675 12.25 6.41675ZM4.66667 7.58342V6.41675H5.83334V7.00008V7.58342H4.66667ZM12.25 10.5001H10.5C10.5 10.1907 10.3771 9.89392 10.1583 9.67513C9.93951 9.45633 9.64276 9.33342 9.33334 9.33342H8.16667C7.85725 9.33342 7.56051 9.45633 7.34172 9.67513C7.12292 9.89392 7.00001 10.1907 7.00001 10.5001H1.75001C1.5953 10.5001 1.44692 10.5615 1.33753 10.6709C1.22813 10.7803 1.16667 10.9287 1.16667 11.0834C1.16667 11.2381 1.22813 11.3865 1.33753 11.4959C1.44692 11.6053 1.5953 11.6668 1.75001 11.6668H7.00001C7.00001 11.9762 7.12292 12.2729 7.34172 12.4917C7.56051 12.7105 7.85725 12.8334 8.16667 12.8334H9.33334C9.64276 12.8334 9.93951 12.7105 10.1583 12.4917C10.3771 12.2729 10.5 11.9762 10.5 11.6668H12.25C12.4047 11.6668 12.5531 11.6053 12.6625 11.4959C12.7719 11.3865 12.8333 11.2381 12.8333 11.0834C12.8333 10.9287 12.7719 10.7803 12.6625 10.6709C12.5531 10.5615 12.4047 10.5001 12.25 10.5001ZM8.16667 11.6668V10.5001H9.33334V11.0834V11.6668H8.16667Z" fill="#F8611A"/>
</svg>
