<svg width="18" height="18" viewBox="0 0 18 18" fill="none" xmlns="http://www.w3.org/2000/svg">
<path d="M11.5993 14.2724C11.7551 14.2758 11.9082 14.2306 12.0371 14.1431C12.1661 14.0555 12.2646 13.9299 12.3189 13.7837C12.3732 13.6376 12.3806 13.4782 12.3401 13.3277C12.2996 13.1771 12.2132 13.043 12.0929 12.9438L7.50354 9.0122L12.0929 5.08195C12.1761 5.0208 12.2458 4.94316 12.2976 4.85383C12.3494 4.7645 12.3822 4.66541 12.3939 4.56282C12.4056 4.46023 12.3961 4.35635 12.3658 4.25763C12.3355 4.15891 12.2852 4.06748 12.2179 3.98911C12.1507 3.91075 12.068 3.84718 11.975 3.80226C11.882 3.75733 11.7808 3.7321 11.6776 3.72812C11.5744 3.72414 11.4715 3.74145 11.3754 3.77907C11.2792 3.8167 11.1919 3.87377 11.1188 3.94672L5.86438 8.44238C5.78186 8.5128 5.71561 8.6002 5.67017 8.6987C5.62474 8.7972 5.60121 8.90442 5.60121 9.01289C5.60121 9.12137 5.62474 9.22858 5.67017 9.32708C5.71561 9.42559 5.78186 9.51307 5.86438 9.58349L11.1188 14.0835C11.2515 14.2014 11.4218 14.2684 11.5993 14.2726L11.5993 14.2724Z" fill="#B6ACAC"/>
</svg>
