<svg width="15" height="12" viewBox="0 0 15 12" fill="none" xmlns="http://www.w3.org/2000/svg">
<g clip-path="url(#clip0_2_109)">
<path d="M14.9999 1.42144C14.5822 2.03333 14.0697 2.55494 13.4625 2.98627C13.4685 3.10195 13.4715 3.2327 13.4715 3.37852C13.4715 4.1887 13.3516 4.99986 13.1117 5.81201C12.8718 6.62416 12.5054 7.40153 12.0125 8.14412C11.5195 8.88672 10.9323 9.54459 10.2509 10.1177C9.56945 10.6909 8.75033 11.1479 7.79353 11.4887C6.83673 11.8296 5.8113 12 4.71724 12C3.00977 12 1.43735 11.546 0 10.6381C0.255113 10.6661 0.499788 10.68 0.734025 10.68C2.16048 10.68 3.43453 10.2473 4.55618 9.38191C3.89109 9.3699 3.29545 9.16827 2.76926 8.777C2.24307 8.38575 1.88096 7.8858 1.68293 7.27715C1.87867 7.31387 2.07186 7.33223 2.2625 7.33223C2.53691 7.33223 2.80693 7.29698 3.07256 7.22648C2.36278 7.08648 1.77396 6.73832 1.30609 6.182C0.838244 5.62569 0.60432 4.9836 0.60432 4.25573V4.21822C1.03998 4.45578 1.50469 4.58215 1.99843 4.59732C1.57797 4.32126 1.2446 3.96126 0.998334 3.51733C0.75205 3.0734 0.628909 2.593 0.628909 2.07611C0.628909 1.53096 0.767614 1.02333 1.04503 0.553212C1.8169 1.48607 2.75218 2.23164 3.85087 2.78992C4.94958 3.3482 6.12829 3.65826 7.38699 3.72008C7.33331 3.49974 7.30642 3.2698 7.30632 3.03026C7.30632 2.1939 7.60685 1.47976 8.20791 0.887856C8.80897 0.295952 9.53412 0 10.3834 0C11.2725 0 12.0214 0.318844 12.6301 0.956532C13.3256 0.82086 13.9768 0.575464 14.5837 0.220344C14.3499 0.945064 13.8993 1.50414 13.232 1.89756C13.8453 1.82578 14.4346 1.66708 14.9999 1.42144H14.9999Z" fill="white"/>
</g>
<defs>
<clipPath id="clip0_2_109">
<rect width="15" height="12" fill="white"/>
</clipPath>
</defs>
</svg>
