<svg width="25" height="22" viewBox="0 0 25 22" fill="none" xmlns="http://www.w3.org/2000/svg">
<path d="M0.25885 7.25238L7.25182 0.259567C7.42485 0.0865383 7.62964 0 7.86639 0C8.10314 0 8.30808 0.0865383 8.48096 0.259567C8.65399 0.432692 8.74063 0.63758 8.74063 0.874281V4.37069H11.8C18.2923 4.37069 22.2757 6.20545 23.751 9.87489C24.2334 11.0948 24.4746 12.6111 24.4746 14.423C24.4746 15.9344 23.8964 17.9876 22.7401 20.5827C22.7128 20.6465 22.6651 20.7556 22.5967 20.9103C22.5284 21.065 22.467 21.2016 22.4124 21.3201C22.3575 21.4383 22.2983 21.5384 22.2347 21.6203C22.1255 21.7751 21.998 21.8527 21.8522 21.8527C21.7157 21.8527 21.6086 21.8072 21.5312 21.7162C21.4539 21.6252 21.4152 21.5113 21.4152 21.375C21.4152 21.2928 21.4266 21.1724 21.4494 21.0129C21.4722 20.8535 21.4836 20.7468 21.4836 20.692C21.5292 20.0731 21.552 19.5127 21.552 19.0123C21.552 18.0927 21.4722 17.2686 21.313 16.5403C21.1536 15.8117 20.9328 15.1813 20.6505 14.6486C20.3682 14.1157 20.0041 13.6562 19.5578 13.2692C19.1117 12.8822 18.6315 12.5659 18.117 12.32C17.6025 12.0741 16.997 11.8806 16.3004 11.7395C15.6039 11.5984 14.9028 11.5005 14.1971 11.4458C13.4913 11.3911 12.6924 11.3639 11.8 11.3639H8.74063V14.8604C8.74063 15.0971 8.65418 15.3021 8.4813 15.475C8.30813 15.6478 8.10333 15.7345 7.86673 15.7345C7.63003 15.7345 7.42509 15.6478 7.25182 15.475L0.258993 8.48195C0.0859642 8.30892 -0.000478745 8.10413 -0.000478745 7.86738C-0.000431061 7.63068 0.0859642 7.42575 0.25885 7.25238Z" fill="#2A2B30"/>
</svg>
